<?xml version="1.0" standalone="no"?>
<!DOCTYPE svg PUBLIC "-//W3C//DTD SVG 1.1//EN" "http://www.w3.org/Graphics/SVG/1.1/DTD/svg11.dtd" >
<svg xmlns="http://www.w3.org/2000/svg">
<metadata>Generated by IcoMoon</metadata>
<defs>
<font id="icomoon" horiz-adv-x="1024">
<font-face units-per-em="1024" ascent="960" descent="-64" />
<missing-glyph horiz-adv-x="1024" />
<glyph unicode="&#x20;" horiz-adv-x="512" d="" />
<glyph unicode="&#xe900;" glyph-name="addresses" d="M902.066 885.591l-0.946-946.777-788.209 1.539 1.065 1015.447 667.841 1.848 2.040-884.86c-7.141 0-580.692 2.193-580.692 2.193l1.79-52.232h625.908l-1.030 822.188zM510.652 496.991c-6.406 7.272-6.406 7.272-2.105 34.307 7.332 30.259 13.984 11.476 24.474 71.825 8.798 50.69-9.99 94.24-67.076 94.24-57.071 0-75.875-43.55-67.061-94.24 10.487-60.353 17.116-41.566 24.467-71.825 4.301-27.038 4.301-27.038-2.111-34.307-30.376-34.498-115.173-21.074-124.349-65.118v-29.158c0 0-1.69-13.639 18.582-13.639 96.198 0 205.909 0 302.377 0 17.031 0 16.893 13.639 16.893 13.639s0 16.369 0.138 23.187c-9.183 44.045-93.831 36.592-124.228 71.089z" />
<glyph unicode="&#xe901;" glyph-name="agencies" d="M983.040 53.627v44.984h-50.658v419.226h-131.318v-419.226h-105.062v419.226h-131.318v-419.226h-105.062v419.226h-131.328v-419.226h-105.062v419.226h-131.318l-0.113-419.226h-50.842v-44.984h-40.96v-96.195h1024v96.195h-40.96zM997.898 623.851h-971.796v-76.482h971.796v76.482zM511.98 929.28l-485.878-274.709h971.796l-485.919 274.709z" />
<glyph unicode="&#xe902;" glyph-name="alerts" d="M520.010-18.23c50.935 3.22 101.487 41.663 93.42 128.31-74.724-4.541-138.92-5.296-193.503-2.177-10.24-76.083 46.605-129.541 100.083-126.133v0zM497.818 160.438c-434.74-0.005-397.427 83.318-335.214 126.743 62.217 43.448 69.756 139.015 70.265 303.604 0.322 104.13 133.22 150.316 186.135 155.1 57.211 9.19 151.238 4.565 166.236 0 75.807-16.607 177.543-57.601 177.513-155.117 0.028-164.573 8.068-260.147 70.279-303.572 52.607-36.768 87.341-101.997-166.63-121.3-9.553-0.684-158.28-5.465-168.583-5.458v0zM494.965 796.277c-35.751 0-75.437-4.443-77.475-4.443-12.291 5.536-14.748 24.443-14.745 31.422-0.018 44.661 37.334 85.55 92.22 85.544 54.861 0.001 91.659-40.874 91.646-85.538-0.001-7.961-1.066-27.878-15.162-31.428-3.174 0-42.042 4.443-76.484 4.443v0z" />
<glyph unicode="&#xe903;" glyph-name="analysis" d="M816.558 804.485c0-56.531-177.658-102.359-396.81-102.359s-396.81 45.828-396.81 102.359c0 56.531 177.658 102.359 396.81 102.359s396.81-45.828 396.81-102.359zM418.529 460.913c47.759 0 80.527 0.799 89.108 2.017 2.867 33.116 20.029 94.433 74.813 138.179 28.621 20.849 75.633 57.231 163.932 48.23 8.714-2.191 38.83-4.495 69.489-21.258 0 7.363 0.686 122.644 0.686 122.644s-1.219-110.264-396.81-110.264c-395.581 0-396.8 110.264-396.8 110.264v-147.497c0 0 0-142.316 395.581-142.316zM418.529 219.802c147.886 0 164.188 6.441 215.429 22.794-41.288 20.849-65.413 43.336-94.024 80.128-15.544 25.754-24.535 44.564-32.707 91.156-16.763-2.038-39.936-2.304-87.48-2.304-395.581 0-396.8 129.843-396.8 129.843v-170.045c0 0.010 0-151.572 395.581-151.572zM701.819 226.652c-5.376-1.884-41.667-52.644-282.071-52.644-395.581 0-397.353 136.847-397.353 136.847l0.543-177.633c0 0 0-153.242 395.581-153.221 395.581 0 398.029 151.296 398.029 151.296s0.133 110.981 0.133 117.821c-40.868-19.61-77.251-25.334-114.862-22.467zM1003.868 208.343l-77.169 80.671-75.254 32.788c27.249 31.304 41.759 69.714 42.629 109.138 0.922 43.305-14.828 86.927-47.473 121.047-31.949 33.331-74.844 50.227-118.876 51.19-91.064 1.976-170.189-73.769-172.155-164.864-2.017-91.832 72.182-170.885 164.076-172.882 39.455-0.86 79.176 11.889 111.657 37.775l29.44-77.312 77.24-79.933c7.424-6.216 17.234-9.472 27.085-9.687 24.31-0.522 46.766 19.497 47.309 44.544 0.236 9.871-2.611 19.046-8.509 27.525zM796.795 359.465c-20.91-20.070-47.708-29.327-75.028-28.733-55.388 1.198-102.195 49.295-100.936 106.189 1.198 55.45 49.326 102.216 105.472 101.007 57.702-1.28 103.752-49.347 102.502-105.544-0.563-26.563-11.786-52.869-32.010-72.919z" />
<glyph unicode="&#xe904;" glyph-name="announcement" d="M122.88 617.71h-122.88v-416.513h122.88v119.032l675.84-211.909v602.268l-675.84-211.909zM1024 31.097v756.714l-129.849-49.341v-658.032z" />
<glyph unicode="&#xe905;" glyph-name="archive" d="M0 820.040v-744.060h1024v744.040l-1024 0.020zM395.28 645.96l0.1-143.28h250.3l0.18 143.28 81.16-0.16v-222.64h-409.6v222.64l77.86 0.16zM478.7 342.64h87.060v-87.060h-87.060v87.060z" />
<glyph unicode="&#xe906;" glyph-name="bookmark" d="M107.34 964.128c-51.375-1.312-45.716-62.774-45.716-62.774v-895.602c0-35.757 29.258-65.015 65.015-65.015h764.471c35.781 0 65.015 29.258 65.015 65.015v893.947c0 35.757-29.234 65.015-65.015 65.015l-330.407-1.46v-534.031l-155.642 105.112-141.133-105.112v535.515c0 0-136.798-0.105-156.587-0.61z" />
<glyph unicode="&#xe907;" glyph-name="briefcase" d="M798.724 141.232h-61.439v61.439h-450.553v-61.439h-61.439v61.439h-225.276c0-84.827 68.771-189.863 153.597-189.863h716.788c84.827 0 153.598 105.037 153.598 189.863h-225.276v-61.439zM727.045 709.116v81.918c0 50.81-41.338 92.159-92.158 92.159h-245.756c-50.82 0-92.159-41.348-92.159-92.159v-81.918c0 0-192.103-0.607-245.756 0s-51.199-55.599-51.199-55.599v-399.647h225.276v92.158h61.439v-92.158h450.553v92.158h61.439v-92.158h225.276v394.485c0 0-1.707 61.334-51.199 60.761s-245.756 0-245.756 0v0zM378.891 791.034c0 5.642 4.588 10.24 10.24 10.24h245.756c5.652 0 10.24-4.598 10.24-10.24v-81.918h-266.236v81.918z" />
<glyph unicode="&#xe908;" glyph-name="building" d="M450.13 105.146h100.695v-169.146h214.616v136.365c0 0 0 777.798-0.006 777.798v61.799h-104.276v48.039h-321.363v-48.039h-104.276v-975.961h214.61v169.146zM610.818 297.542h100.689v-127.483h-100.689v127.483zM450.13 297.542h100.695v-127.483h-100.695v127.483zM292.342 297.542h100.695v-127.483h-100.695v127.483zM610.818 485.779h100.689v-127.483h-100.689v127.483zM450.13 485.779h100.695v-127.483h-100.695v127.483zM292.342 485.779h100.695v-127.483h-100.695v127.483zM610.818 657.765h100.689v-127.483h-100.689v127.483zM450.13 657.765h100.695v-127.483h-100.695v127.483zM292.342 657.765h100.695v-127.483h-100.695v127.483zM610.818 824.39h100.689v-127.483h-100.689v127.483zM450.13 824.39h100.695v-127.483h-100.695v127.483zM292.342 824.39h100.695v-127.483h-100.695v127.483z" />
<glyph unicode="&#xe909;" glyph-name="calendar" d="M61.44 642.56h901.12v-613.437l-81.93-82.883h-737.28l-81.91 82.883zM757.76 847.36l204.8-0.952v-152.648h-901.12v152.648l204.79 0.952v71.68c0 16.978 23.992 30.72 40.96 30.72s40.96-13.742 40.96-30.72v-71.68h327.68v71.68c0 16.978 24.013 30.72 40.98 30.72 16.947 0 40.95-13.742 40.95-30.72zM696.32 99.84v103.742h-100.596v326.338h-107.47l-129.854-121.975 72.752-74.599 58.517 56.176v-185.94h-110.558v-103.742z" />
<glyph unicode="&#xe90a;" glyph-name="certificate" d="M982.588 593.18l-134.684 87.951-41.999 155.249-160.666-8.004-125.255 100.903-125.236-100.903-160.666 8.004-41.999-155.249-134.703-87.951 57.284-150.3-57.284-150.31 134.703-87.961 41.999-155.249 160.666 8.004 125.236-100.884 125.255 100.913 160.666-8.004 42.009 155.229 134.684 87.98-57.255 150.281 57.245 150.3zM440.105 222.519l-185.272 203.807 94.569 82.758 102.26-107.852 258.875 246.118 82.963-95.974-353.395-328.857z" />
<glyph unicode="&#xe90b;" glyph-name="checkmark" d="M346.46 54.139l-345.979 378.993 163.594 141.332 204.462-219.228 514.468 490.865 141.476-159.887z" />
<glyph unicode="&#xe90c;" glyph-name="circle-info" d="M512 962.693c-282.767 0-512-229.233-512-512 0-282.778 229.233-512 512-512 282.757 0 512 229.222 512 512 0 282.767-229.243 512-512 512zM509.727 811.51c44.452 0 80.476-36.024 80.476-80.466s-36.035-80.466-80.476-80.466c-44.442 0-80.456 36.024-80.456 80.466 0 44.431 36.014 80.466 80.456 80.466zM606.045 107.551h-195.175l50.002 439.818h86.303z" />
<glyph unicode="&#xe90d;" glyph-name="circle-x" d="M874.035 810.035c-199.946 199.946-524.134 199.946-724.081 0s-199.946-524.134 0-724.081c199.946-199.936 524.134-199.946 724.081 0s199.946 524.145 0 724.081zM661.309 207.104l-144.957 144.968-145.654-145.654-92.979 92.969 145.664 145.664-144.968 144.957 92.273 92.283 144.957-144.957 144.957 144.947 92.979-92.979-144.947-144.968 144.957-144.957-92.283-92.273z" />
<glyph unicode="&#xe90e;" glyph-name="classification" d="M1013.080 474.369l-474.715 474.705c-14.561 14.572-38.175 14.572-52.736 0l-474.705-474.705c-14.571-14.561-14.561-38.185 0-52.726l474.705-474.715c14.561-14.571 38.175-14.571 52.736 0l474.705 474.715c14.572 14.551 14.572 38.165 0.010 52.726v0zM798.195 462.092c0-0.236-0.051-0.471-0.051-0.696 0-0.123-0.020-0.236-0.020-0.358-0.031-0.164 0.328-0.348 0.287-0.502-0.020-0.205 0.307-0.389 0.307-0.604v-0.061c0-4.434-3.195-8.571-6.369-11.766-6.001-7.127-12.769-13.814-19.374-20.357-35.656-35.389-76.677-66.949-121.487-89.876-28.631-14.633-59.279-26.409-91.033-32.102-34.887-6.226-69.837-5.929-104.55 1.464-60.058 12.749-114.463 44.472-162.037 82.381-22.088 17.602-43.837 36.843-62.095 58.491-7.977 9.462-7.977 20.675 0.010 30.147 5.98 7.107 12.564 13.793 19.159 20.336 35.666 35.4 76.595 66.97 121.405 89.866 28.631 14.633 59.218 26.44 90.962 32.123 34.898 6.226 69.816 5.919 104.529-1.454 60.058-12.759 114.473-44.472 162.048-82.391 22.098-17.572 44.186-36.844 62.474-58.47 3.174-3.215 6.369-7.363 6.369-11.797v-0.072c0-0.195-0.328-0.399-0.307-0.604 0.041-0.154-0.133-0.338-0.133-0.502 0.041-0.123-0.072-0.236-0.051-0.358 0-0.225-0.020-0.461-0.020-0.696 0.031-0.358 0.020-0.707 0.020-1.065 0-0.369-0.020-0.717-0.041-1.075v0zM512.008 573.308c-60.825 0-110.131-49.316-110.131-110.141s49.295-110.151 110.131-110.151c60.836 0 110.131 49.316 110.131 110.151s-49.306 110.141-110.131 110.141v0zM512.008 429.416c-20.132 0-36.444 16.323-36.444 36.454 0 20.142 16.312 36.464 36.444 36.464 20.122 0 36.465-16.322 36.465-36.464s-16.343-36.454-36.465-36.454v0z" />
<glyph unicode="&#xe90f;" glyph-name="clock" d="M511.367 940.078c-271.459 0-491.52-220.061-491.52-491.52s220.061-491.52 491.52-491.52c271.459 0 491.52 220.061 491.52 491.52s-220.061 491.52-491.52 491.52zM477.704 904.808h53.426v-80.995h-53.426v80.995zM830.483 784.955l37.795-37.774-57.287-57.266-37.774 37.774 57.266 57.266zM214.894 781.511l57.287-57.266-37.795-37.795-57.266 57.287 37.774 37.774zM477.704 768.906h53.426v-219.026c38.596-10.056 68.394-39.839 78.301-77.672l0.168-0.756h99.172v-53.426h-99.214c-12.319-47.401-54.698-81.844-105.133-81.913h-0.008c-0.002 0-0.004 0-0.006 0-59.989 0-108.62 48.631-108.62 108.62 0 0.002 0 0.004 0 0.006v0c0.049 50.46 34.499 92.86 81.158 105.015l0.755 0.167v218.984zM63.631 471.452h80.995v-53.426h-80.995v53.426zM887.582 471.452h80.995v-53.426h-80.995v53.426zM247.867 202.339l37.774-37.774-57.266-57.287-37.774 37.795 57.266 57.266zM797.739 198.687l57.266-57.287-37.774-37.774-57.287 57.266 37.795 37.795zM477.704 80.565h53.426v-80.995h-53.426v80.995z" />
<glyph unicode="&#xe910;" glyph-name="code" d="M214.346 438.916l250.515-349.653c26.975-37.058-6.598-89.623-30.14-104.328s-85.020-31.045-115.558 5.841l-319.162 448.14 319.162 453.075c33.325 37.141 94.803 15.172 108.67 5.199s68.683-55.043 37.028-102.807l-250.515-355.467zM809.654 438.916l-250.515-349.653c-26.975-37.058 6.598-89.623 30.14-104.328s85.020-31.045 115.558 5.841l319.162 448.14-319.162 453.075c-33.325 37.141-94.803 15.172-108.67 5.199s-68.683-55.043-37.028-102.807l250.515-355.467z" />
<glyph unicode="&#xe911;" glyph-name="codewords" d="M993.28 53.663l-33.643-50.377-37.318-67.286h-341.826l-65.791 67.286v4.267l-1.447-1.042-146.098 202.966 84.715 60.979 62.83-87.287v550.577h100.753v-453.389h25.188v226.694h100.753v-226.694h25.188v176.318h100.753v-176.318h25.188v125.941h100.753v-352.636zM410.303 497.804h-151.13v-151.13h151.13v151.13zM183.608 506.611h-151.13v-151.13h151.13v151.13zM410.303 733.306h-151.13v-151.13h151.13v151.13zM183.608 733.306h-151.13v-151.13h151.13v151.13zM410.303 960h-151.13v-151.13h151.13v151.13zM183.608 960h-151.13v-151.13h151.13v151.13zM636.997 960h-151.13v-151.13h151.13v151.13z" />
<glyph unicode="&#xe912;" glyph-name="comment" d="M25.231 806.4v-628.775h256.676v-185.11l224.010 185.068h492.79l0.061 628.817z" />
<glyph unicode="&#xe913;" glyph-name="countries" d="M512.007 960c-282.75 0-512.007-229.215-512.007-511.98 0-282.778 229.257-511.993 512.007-511.993s511.993 229.215 511.993 511.993c0 282.778-229.243 511.98-511.993 511.98v0zM728.568 290.579c0-8.047-2.833-20.591-6.286-27.854l-37.387-78.858c-3.467-7.263-11.087-17.689-16.974-23.219l-121.719-113.659c-5.86-5.475-4.086-10 3.947-10h13.948c8.033 0 14.622-5.763 14.622-12.792 0-7.084-6.589-12.861-14.622-12.861h-59.835c-8.047 0-14.622 6.589-14.622 14.649v155.653c0 8.088 6.575 14.635 14.622 14.635h16.63c8.060 0 14.636 6.589 14.636 14.635v16.63c0 8.060-6.589 14.649-14.636 14.649h-16.63c-8.047 0-14.622 6.561-14.622 14.608v91.197c0 8.047-6.589 14.622-14.649 14.622h-24.746c-8.019 0-20 3.797-26.547 8.46l-78.721 55.681c-6.575 4.636-15.296 14.113-19.381 21.059l-36.836 62.531c-4.085 6.933-14.016 12.614-22.063 12.614h-17.579c-8.047 0-17.483 5.942-20.977 13.177l-42.668 88.391c-3.439 7.235-6.341 19.738-6.341 27.813v50.385c0 8.047-6.286 12.71-13.975 10.344l-17.166-5.282c74.278 103.824 191.774 174.566 326.010 185.928v-60.77c0-8.033 5.378-18.404 11.953-23.012l27.414-19.271c6.589-4.608 18.542-8.404 26.602-8.404h21.678c8.047 0 14.622-5.309 14.622-11.816 0-6.478-4.539-16.561-10.069-22.421l-31.238-32.93c-5.557-5.818-3.48-10.605 4.553-10.633l20.853-0.055c8.019-0.013 14.594-6.602 14.594-14.663l-0.041-52.558c-0.028-8.033 6.547-14.622 14.594-14.622h23.521c8.047 0 14.636-4.993 14.636-11.114 0-6.108-6.589-11.1-14.636-11.1h-72.118c-8.033 0-19.849-4.003-26.231-8.872l-29.56-22.531c-6.396-4.869-11.637-15.447-11.623-23.494l0.013-87.414c0-8.047-6.561-14.635-14.621-14.635h-4.085c-8.033 0-14.622 6.588-14.622 14.635v50.316c0 8.047-6.561 14.622-14.622 14.622h-39.45c-8.019 0-14.622-6.575-14.677-14.622l-0.206-40.619c-0.055-8.047 5.076-18.734 11.362-23.796l58.239-46.712c6.245-5.048 17.978-9.175 26.011-9.188l97.262-0.055c8.033-0.013 20.468-3.067 27.593-6.795l123.92-64.745c7.125-3.728 12.957-13.356 12.957-21.417v-4.443h-0.013zM690.989 728.873c-6.492-4.773-18.377-8.679-26.424-8.679h-6.3c-8.033 0-14.621 6.588-14.621 14.636v47.551c0 8.047-6.561 14.622-14.622 14.622h-21.183c-8.047 0-14.621 6.588-14.621 14.621v76.245c70.014-12.916 134.429-41.994 188.995-83.48-1.885-6.259-91.224-75.515-91.224-75.515v0z" />
<glyph unicode="&#xe914;" glyph-name="dashboard" d="M968.94 760.033h-620.022c-13.66 12.462-24.248 57.446-38.687 57.446h-168.796c-14.438 0-24.76-44.984-38.574-57.446h-42.67c-20.5 0-37.151-16.63-37.151-37.14v-633.518c0-20.5 16.65-37.12 37.151-37.12h908.749c20.552 0 37.14 16.62 37.14 37.12v633.518c0 20.521-16.589 37.14-37.14 37.14zM923.525 105.882h-822.395c-21.412 0-38.758 17.326-38.758 38.769v514.877c0 21.402 17.336 38.738 38.758 38.738h822.395c21.402 0 38.758-17.336 38.758-38.738v-514.877h0.020c0-21.443-17.367-38.769-38.779-38.769zM285.499 285.878v169.452h169.473c-0.010 93.603-75.881 169.483-169.473 169.483s-169.473-75.881-169.473-169.505c0-93.56 75.881-169.431 169.473-169.431zM314.965 256.391c93.592 0 169.473 75.891 169.473 169.494h-169.473v-169.494zM676.567 442.577h83.834v-282.173h-83.834v282.173zM802.355 536.634h83.859v-376.23h-83.859v376.23zM550.755 348.506h83.871v-188.101h-83.871v188.101z" />
<glyph unicode="&#xe915;" glyph-name="database" d="M927.501 801.036c0-76.702-188.143-138.881-420.229-138.881s-420.229 62.179-420.229 138.881c0 76.702 188.143 138.881 420.229 138.881s420.229-62.179 420.229-138.881zM74.519 570.752v158.211c0 0 1.342-138.474 432.753-138.474 431.426 0 432.753 138.474 432.753 138.474v-160.156c0 0-2.683-146.223-434.080-146.223-431.426 0-431.426 148.169-431.426 148.169zM74.519 337.169v158.2c0 0 1.342-138.463 432.753-138.463 431.426 0 432.753 138.463 432.753 138.463v-160.146c0 0-2.683-146.245-434.080-146.245-431.426 0-431.426 148.19-431.426 148.19zM74.519 109.39v158.232c0 0 1.342-138.495 432.753-138.495 431.426 0 432.753 138.495 432.753 138.495v-160.167c0 0-2.683-146.224-434.080-146.224-431.426-0.011-431.426 148.158-431.426 148.158z" />
<glyph unicode="&#xe916;" glyph-name="decentralization" d="M975.534 742.492c21.842 0 39.547 17.705 39.547 39.547s-17.705 39.547-39.547 39.547c-18.719 0-34.335-13.056-38.42-30.536l-194.97-39.547c-9.39 18.483-27.013 32.020-48.056 35.82l-3.072 85.924c16.138 6.892 27.474 22.886 27.474 41.564-0.010 24.955-20.244 45.189-45.21 45.189-24.955 0-45.199-20.234-45.199-45.199 0-21.361 14.858-39.137 34.775-43.858l3.021-84.531c-16.763-4.137-31.037-14.49-40.233-28.529l-159.826 96.655c0.748 3.031 1.26 6.164 1.26 9.421 0 21.852-17.705 39.547-39.547 39.547-21.832 0-39.547-17.695-39.547-39.547s17.705-39.547 39.547-39.547c8.243 0 15.892 2.54 22.221 6.851l165.714-100.239c-0.492-3.267-0.819-6.595-0.819-9.994 0-9.861 2.171-19.2 5.97-27.638l-251.761-251.167c-11.622 9.503-26.46 15.217-42.65 15.217-13.752 0-26.522-4.137-37.181-11.203l-119.47 119.47c6.308 8.96 10.086 19.835 10.086 31.621 0 30.423-24.658 55.081-55.081 55.081s-55.081-24.658-55.081-55.081c0-30.423 24.668-55.081 55.081-55.081 8.325 0 16.148 1.987 23.224 5.304l121.498-121.508c-6.615-10.435-10.496-22.764-10.496-36.024 0-5.089 0.614-10.025 1.679-14.787l-172.165-57.856c-7.086 10.67-19.18 17.705-32.942 17.705-21.842 0-39.547-17.705-39.547-39.547s17.705-39.526 39.547-39.526c19.804 0 36.055 14.592 38.943 33.587l178.156 59.863c10.22-13.517 25.385-23.030 42.834-25.876l-0.031-101.222c-20.204-4.495-35.328-22.477-35.328-44.042 0-24.965 20.234-45.189 45.199-45.189s45.199 20.234 45.199 45.189c0 18.412-11.039 34.181-26.829 41.216l0.041 105.411c19.436 5.171 35.379 18.76 43.735 36.659l227.86-45.885c-0.338-2.396-0.737-4.762-0.737-7.24 0-28.979 23.501-52.48 52.48-52.48 3.83 0 7.537 0.461 11.131 1.239l37.263-92.058c-10.752-8.561-17.787-21.576-17.787-36.403 0-7.578 1.976-14.643 5.202-20.961l-75.622-79.288c-0.338 0.133-0.635 0.348-0.993 0.471-20.541 7.404-43.203-3.277-50.586-23.818s3.277-43.192 23.818-50.586c20.562-7.393 43.203 3.287 50.596 23.828 3.809 10.598 2.744 21.719-1.935 31.078l74.557 78.203c6.482-3.41 13.742-5.509 21.555-5.509 12.237 0 23.276 4.813 31.601 12.534l140.216-94.259c-1.413-4.055-2.335-8.346-2.335-12.913 0-21.842 17.705-39.526 39.526-39.526 21.842 0 39.547 17.705 39.547 39.526 0 21.852-17.705 39.547-39.547 39.547-6.84 0-13.199-1.905-18.821-4.977l-144.579 97.188c0.635 3.062 0.993 6.226 0.993 9.482 0 25.754-20.869 46.612-46.612 46.612-0.819 0-1.567-0.195-2.365-0.225l-38.441 95.611c9.892 9.544 16.087 22.876 16.087 37.704 0 28.979-23.501 52.48-52.48 52.48-16.323 0-30.73-7.608-40.346-19.313l-232.95 47.636c0 0.246 0.031 0.481 0.031 0.727 0 10.813-2.601 20.992-7.127 30.044l250.89 250.593c11.899-10.557 27.525-17.029 44.677-17.029 13.865 0 26.726 4.198 37.437 11.366l130.079-130.079c-2.519-5.632-4.004-11.837-4.004-18.401 0-24.975 20.244-45.199 45.199-45.199s45.189 20.224 45.189 45.199c0 24.965-20.234 45.199-45.189 45.199-8.059 0-15.524-2.284-22.057-5.98l-129.546 129.556c6.502 10.373 10.322 22.6 10.322 35.738 0 1.055-0.113 2.068-0.164 3.113l191.744 38.881c6.738-12.196 19.569-20.541 34.478-20.541z" />
<glyph unicode="&#xe917;" glyph-name="delivery" d="M60.020 729.6c2.968-140.672 1.361-281.421 1.361-422.121l37.085-47.002h89.174c4.291 58.41 53.022 104.682 112.79 104.682 59.486 0 108.232-46.271 112.522-104.682h257.21c5.171 57.538 53.575 102.823 112.714 102.823 58.859 0 107.237-45.285 112.407-102.823h86.111v170.336l-54.559 40.907-74.127 183.996h-227.34l-20.48 73.885zM689.976 593.55h115.942l40.772-122.682h-156.714zM301.312 327.53c-45.51 0-82.331-36.864-82.331-82.158 0-45.435 36.821-82.331 82.331-82.331 45.295 0 82.101 36.896 82.101 82.331 0 45.295-36.806 82.158-82.101 82.158zM783.854 327.53c-45.51 0-82.331-36.864-82.331-82.158 0-45.435 36.821-82.331 82.331-82.331 45.295 0 82.235 36.896 82.235 82.331 0 45.295-36.941 82.158-82.235 82.158z" />
<glyph unicode="&#xe918;" glyph-name="distributed" d="M965.356 319.375l-45.169 266.957c11.418 8.561 18.913 22.077 18.913 37.448 0 25.917-21.012 46.93-46.94 46.93-6.318 0-12.339-1.29-17.838-3.564l-135.967 140.175c11.336 10.097 18.627 24.648 18.627 41.032 0 30.423-24.627 55.081-55.081 55.081-18.985 0-35.707-9.615-45.64-24.248l-217.375 46.316c-3.676 18.033-19.62 31.601-38.748 31.601-21.852 0-39.547-17.705-39.547-39.547 0-6.922 1.946-13.353 5.079-19.016l-172.175-178.207c-2.447 0.369-4.905 0.748-7.465 0.748-27.331 0-49.49-22.159-49.49-49.5 0-18.309 10.056-34.12 24.842-42.68l-89.6-230.236c-2.284 0.317-4.557 0.696-6.932 0.696-27.331 0-49.49-22.159-49.49-49.5 0-20.644 12.646-38.298 30.597-45.722l-3.338-239.933c-18.862-7.004-32.379-24.996-32.379-46.295 0-27.341 22.159-49.5 49.49-49.5 25.006 0 45.476 18.606 48.804 42.721l410.399 27.126c7.219-15.36 22.712-26.061 40.806-26.061 10.455 0 19.937 3.676 27.597 9.636l203.735-68.741c6.81-11.899 19.487-20.009 34.181-20.009 21.842 0 39.547 17.705 39.547 39.547 0 2.744-0.266 5.376-0.809 7.956l100.823 249.784c21.719 3.297 38.4 21.893 38.4 44.544 0.031 22.456-16.394 40.95-37.857 44.462zM528.968 552.479l160.522-206.879c-4.741-5.745-8.315-12.339-10.486-19.64l-309.78 21.217c-1.864 4.557-4.495 8.673-7.557 12.431l116.408 187.228c6.113-2.068 12.626-3.246 19.436-3.246 11.53 0 22.292 3.287 31.457 8.888zM549.284 572.826c3.318 5.499 5.714 11.602 7.168 18.053l291.41 18.053c1.925-5.755 4.905-10.957 8.745-15.473l-118.845-227.676c-1.638 0.143-3.215 0.502-4.905 0.502-7.281 0-14.182-1.495-20.562-4.004l-163.011 210.545zM670.3 803.359c8.96-6.308 19.845-10.086 31.621-10.086 3.82 0 7.567 0.399 11.182 1.137l139.51-145.562c-2.765-4.352-4.823-9.175-6.031-14.326l-289.915-18.043c-1.741 8.335-5.069 16.097-9.861 22.804l123.494 164.076zM434.125 897.628l213.115-45.394c-0.102-1.311-0.399-2.56-0.399-3.881 0-8.325 1.976-16.148 5.304-23.224l-126.28-167.434c-6.973 3.707-14.746 6.083-23.030 6.799-2.765 0.43-5.581 0.666-8.468 0.666-1.874 0-3.625-0.369-5.437-0.553l-66.959 220.006c5.018 3.328 9.103 7.823 12.155 13.015zM388.751 879.882c1.772-0.532 3.574-0.983 5.437-1.27l68.127-223.468c-10.67-7.373-18.422-18.391-22.026-31.16-0.307-0.881-0.614-1.751-0.881-2.652v0l-204.708 58.317c-1.884 11.438-7.67 21.453-15.964 28.815l170.015 171.418zM231.25 651.602l206.623-57.856c2.294-13.22 8.858-24.945 18.248-33.741l-115.22-185.313c-5.448 2.068-11.305 3.338-17.49 3.338-1.26 0-2.437-0.266-3.666-0.369l-103.506 254.976c6.441 5.007 11.674 11.428 15.012 18.964zM186.204 622.111c2.232 0 4.362 0.358 6.513 0.655l102.84-253.338c-9.4-6.42-16.271-16.067-19.497-27.269l-162.621 16.763c-2.232 12.042-8.868 22.405-18.094 29.665l90.86 233.523zM84.92 60.324c-4.28 2.54-8.919 4.506-13.906 5.683l3.082 235.305c17.418 3.297 31.437 15.729 37.233 32.123l164.25-16.916c1.475-5.868 3.891-11.346 7.26-16.179l-197.919-240.015zM515.461 66.324l-411.197-27.156c-0.43 0.911-0.942 1.772-1.434 2.652l199.619 242.053c6.39-3.011 13.435-4.823 20.961-4.823 4.485 0 8.735 0.788 12.861 1.905l185.457-199.291c-2.959-4.628-5.161-9.769-6.267-15.34zM578.15 98.611c-5.632 2.519-11.827 3.994-18.401 3.994-5.714 0-11.090-1.147-16.108-3.092l-183.204 196.485c5.601 6.359 9.728 14.039 11.469 22.682l305.818-20.961c1.454-6.615 4.065-12.78 7.608-18.299l-107.182-180.808zM787.61-15.892l-184.218 62.167c0.911 3.584 1.536 7.26 1.536 11.121 0.010 8.059-2.273 15.524-5.97 22.057l107.192 180.828c7.987-4.321 16.978-7.004 26.685-7.004 0.666 0 1.321 0.184 1.956 0.205l71.465-246.333c-8.909-4.925-15.636-13.117-18.647-23.040zM844.257 7.148c-3.123 1.71-6.42 3.103-9.984 3.932l-72.294 250.522c12.81 7.782 22.292 20.357 25.795 35.379l128.707-39.803c3.983-9.329 11.11-16.865 19.937-21.729l-92.16-228.301zM914.176 285.348l-127.232 39.875c-3.625 12.698-11.377 23.624-21.975 30.945l115.661 222.28c-14.92 5.233 7.516-1.597 11.54-1.597 0.358 0 0.696 0.102 1.065 0.102l44.206-262.031c-11.551-5.97-20.193-16.63-23.265-29.573z" />
<glyph unicode="&#xe919;" glyph-name="document" d="M575.945 622.879h201.359l-201.359 201.359v-201.359zM795.61 549.657h-292.887v292.887l-284.937-0.001v-425.431l-73.222 0.063v498.591h449.686l274.582-274.581v-677.302h-724.268v452.932l73.222 0.674v-380.385h577.824v512.553z" />
<glyph unicode="&#xe91a;" glyph-name="documents" d="M1021.87 67.779l-151.368 388.024 93.573 431.473-125.542 16.916-57.037 48.855-279.398-49.981-281.262 37.908-5.857-43.52-57.569-0.041 0.031-56.023-134.83-13.138 69.396-387.871-52.603-390.758 118.548-7.7 0.031-43.817 74.588 0.041 9.882-55.204 279.153 49.981 281.426-37.919 5.847 43.5 57.682 0.041-0.041 56.105zM86.856 777.288l70.615 5.315 0.102-294.533zM102.298 102.441l55.562 272.282 0.072-274.258zM901.171 834.447l-31.355-101.294-59.628 59.689 14.848 51.866zM801.751 706.591l-126.628-0.051-0.051 126.771zM771.492 909.281l7.291-61.235-47.933 3.697-45.426 38.897zM272.937-13.281l-2.048 11.459 107.264 0.041zM236.626 76.8l-0.512 741.96 380.744 0.307 0.102-170.742 170.476 0.102 0.42-571.218zM866.376 305.623l70.758-186.86-70.636-5.325z" />
<glyph unicode="&#xe91b;" glyph-name="document-topic" d="M605.64 847.36v-321.841l-126.812-67.224-43.9 0.080-250.206-0.128c-23.324 2.013-45.929-15.368-54.045-38.452l-130.678-371.155h119.304l65.419 185.825v-185.825h323.74l-0.112 299.458c1.182 0.463 2.396 0.735 3.578 1.294l93.727 51.36v-129.926h426.87v576.535h-426.886zM345.738 485.246c66.298 0 119.959 53.661 119.959 119.959 0 65.898-53.645 119.559-119.959 119.559-65.914 0-119.575-53.661-119.575-119.559 0.032-66.314 53.693-119.959 119.575-119.959v0zM973.082 330.286h-307.965v98.934l183.751 92.29c26.152 12.557 37.143 43.932 24.586 70.068l-3.275 6.773c-12.557 26.136-43.9 37.127-70.068 24.586l-134.994-68.935v233.913h307.965v-457.63z" />
<glyph unicode="&#xe91c;" glyph-name="download" d="M405.768 734.753h210.207v-329.699h169.15l-267.714-281.772-266.805 281.772h155.162zM972.8-2.554v901.108h-921.6v-901.108z" />
<glyph unicode="&#xe91d;" glyph-name="edit" d="M156.887 922.8l669.622-620.123-145.951-161.956-669.694 620.092zM865.287 271.462l156.385-287.324-302.346 125.317z" />
<glyph unicode="&#xe91e;" glyph-name="education" d="M150.676 538.802l-0.088-0.166-150.589-264.165 69.302-26.825 110.157 194.123v-236.106l73.444-28.412v322.236l293.757-112.974 477.34 183.583-477.34 183.601-477.358-183.601 81.375-31.295zM766.973 238.834v183.319l-220.314-84.759-220.314 84.759v-183.319l220.314-84.777 220.314 84.777z" />
<glyph unicode="&#xe91f;" glyph-name="email" d="M982.006 184.033l-302.1 314.993zM1.36 715.48v-552.12l89.56-74.72h841.6l91.44 73.060v553.78c-96.366-72.365-192.909-144.48-289.54-216.48l183.24-218.36-51.66-43.36-185.78 221.42c-55.841-41.55-111.655-83.137-167.58-124.58-54.429 40.217-108.653 80.706-162.92 121.14l-182.92-217.98-51.64 43.36 180.36 214.94c-98.104 73.23-196.118 146.587-294.16 219.9zM21.289 805.448h983.040l-491.694-366.725z" />
<glyph unicode="&#xe920;" glyph-name="fax" d="M768 499.2h40.96v-194.56h-40.96v194.56zM836.48 962.88v-115.52h-836.48v-593.92h174.080v102.4h-92.16v204.8h860.16v-204.8h-92.16v-102.4h174.080v593.92h-82.56v115.52zM78.4 756.8h290.88v-108.48h-290.88zM871.68 730.56h69.12v-64.64h-69.12zM490.56 729.92h69.12v-64.64h-69.12zM684.48 729.92h68.8v-64.64h-68.8zM215.040 499.2v-358.4l204.8-204.8h389.12v563.2h-61.44v-501.76h-296.96v174.080h-174.080v327.68zM337.92 499.2v-30.72h346.88v30.72zM337.92 386.56v-30.72h346.88v30.72zM337.92 273.92v-30.72h346.88v30.72z" />
<glyph unicode="&#xe921;" glyph-name="folder" d="M15.448 783.534c-3.949-9.873 2.094-753.007 2.094-753.007h999.915v476.577c-75.948-0.186-790.67-1.905-795.972 0.083-35.089 1.135-29.771-16.51-29.755-39.395v-347.23l-63.245 21.367v380.594c-2.142 17.495 24.435 49.684 42.733 48.597 271.41 0.578 463.219-1.57 739.404-0.751l-37.496 89.223h-422.451l-82.253 124.987z" />
<glyph unicode="&#xe922;" glyph-name="geopoint" d="M534.802 929.28c-164.090 0-296.96-129.748-296.96-289.716 0-45.887 11.17-89.112 30.515-127.668l266.427-545.176 266.679 545.123c19.128 38.609 30.299 81.817 30.299 127.721 0 159.969-132.852 289.716-296.96 289.716zM702.031 632.145c0-36.635-13.047-70.275-34.702-96.936-29.27-36.001-74.439-59.191-125.201-59.191s-95.877 23.19-125.201 59.191c-21.673 26.661-34.72 60.301-34.72 96.936 0.018 86.24 71.623 156.162 159.939 156.162s159.885-69.94 159.885-156.162z" />
<glyph unicode="&#xe923;" glyph-name="google" d="M814.080 908.8h-249.395c-65.362 0-147.681-9.646-216.658-66.458-52.122-44.79-77.476-106.414-77.476-162.079 0-94.321 72.643-189.911 200.96-189.911 12.104 0 25.364 1.229 38.779 2.406-6.062-14.469-12.175-26.563-12.175-47.155 0-37.509 19.384-60.447 36.321-82.227-54.415-3.604-156.14-9.646-231.24-55.583-71.424-42.414-93.256-104.038-93.256-147.599-0.020-89.498 84.756-172.995 260.321-172.995 208.241 0 318.444 114.893 318.444 228.659 0 83.374-48.435 124.559-101.704 169.308l-43.602 33.843c-13.261 10.906-31.416 25.385-31.416 52.019 0 26.593 18.156 43.561 33.864 59.279 50.821 39.895 101.704 82.227 101.704 171.725 0 91.945-58.163 140.329-85.975 163.297h75.1l77.404 43.469zM707.625 168.663c0-74.988-61.778-130.591-178.022-130.591-129.516 0-213.084 61.686-213.084 147.507 0 85.934 77.496 114.872 104.1 124.559 50.883 16.957 116.244 19.364 127.119 19.364 12.124 0 18.176 0 27.904-1.188 92.037-65.3 131.983-97.987 131.983-159.652zM610.744 558.090c-19.384-19.313-52.101-33.843-82.381-33.843-104.079 0-151.276 134.277-151.276 215.276 0 31.457 6.062 64.082 26.604 89.498 19.384 24.187 53.258 39.926 84.756 39.926 100.465 0 152.576-135.465 152.576-222.515 0-21.811-2.468-60.477-30.28-88.34z" />
<glyph unicode="&#xe924;" glyph-name="harvester" d="M604.413 109.854l0.021-0.021c85.263 0.001 113.443 0.021-0.021 0.021zM727.994 726.802c-3.89 0.326-7.864-0.033-11.697-1.211-15.333-4.704-22.564-20.355-16.232-35.091l12.272-28.565-52.164-28.965c-2.034-63.923-10.305-121.169-10.303-177.704l-62.734-98.398-100.841-43.218-32.423 32.997-50.995-73.773-24.564 29.099-11.843 45.99-44.79 40.815-68.443 16.682-30.515 30.515-44.141 6.813-47.383-83.090-78.21-75.843-53.31-173.982h610.155l-24.728 45.762-55.514 27.837-53.038 7.961-38.256 28.618 113.995 13.626-38.087 43.074 91.011 38.99 44.716 5.212 14.365 20.111 54.012 23.168-39.811-50.277 0.328-204.247 76.277 0.022c0.939-10.804-0.328 171.659-0.328 171.659l82.823 92.817-2.565-82.351 127.642-179.539 61.707 44.88-117.053 163.41v124.625l37.287 15.986 32.65-15.636 33.633 14.795-39.914 159.901-164.395 79.93-40.919-16.622-10.261 23.887c-4.749 11.051-15.746 18.353-27.416 19.33zM858.283 604.578l60.722-28.155 18.88-70.267-42.377-17.111zM731.873 511.823l38.251-75.866-65.178-29.989 26.927 39.53zM635.907 746.367c0-37.912 30.734-68.646 68.646-68.646s68.646 30.734 68.646 68.646c0 37.912-30.734 68.646-68.646 68.646s-68.646-30.734-68.646-68.646z" />
<glyph unicode="&#xe925;" glyph-name="hashtag" d="M775.791 522.462l-36.026-156.6h249.795v-139.050h-279.689l-59.021-274.050h-168.632l59.788 274.050h-148.702l-58.255-274.050h-164.799l56.722 274.050h-182.429v139.050h212.322l36.026 156.6h-248.51v141.075h276.871l59.021 274.725h167.865l-59.021-274.725h151.768l59.788 274.725h164.799l-59.788-274.725h183.962v-141.075h-213.856zM423.198 365.862h150.235l36.026 156.6h-150.235l-36.026-156.6z" />
<glyph unicode="&#xe926;" glyph-name="home" d="M512.225 902.431l-510.208-357.622 0.894-61.44c14.871-3.233 1022.098 0 1022.098 0l-1.009 61.44zM901.079 688.097v254.566h-147.354v-152.279zM123.238-58.788h291.635v348.043l197.837 2.17c0-35.36 0-350.213 0-350.213h289.628l-2.508 488.271c-152.289-0.215-784.693 1.194-772.991 1.194z" />
<glyph unicode="&#xe927;" glyph-name="indeed" d="M571.218 936.147c-184.185 4.226-310.156-216.209-310.156-216.209-102.71-167.593-86.104-222.138-96.869-302.627-0.003-0.006 94.319 311.091 323.41 397.056 200.591 75.271 287.114-60.182 287.114-60.182-3.369 0.71 26.255 124.472-144.521 172.925-20.224 5.738-39.923 8.599-58.977 9.036zM528.206 716.022c-68.436-0.005-123.913-55.482-123.918-123.917v-0.001c0.005-68.436 55.482-123.913 123.918-123.918v0c68.436 0.005 123.913 55.482 123.918 123.917v0.001c-0.005 68.436-55.482 123.913-123.917 123.918v0zM612.906 428.005c-45.877-36.926-104.315-30.723-160.033-30.723 0.165-123.325-0.749-247.897-1.235-371.664 0.007-44.11 35.772-79.861 79.881-79.85 44.097 0.006 79.844 35.752 79.851 79.85 1.359 130.769 0.258 327.183 1.536 402.387z" />
<glyph unicode="&#xe928;" glyph-name="industry" d="M110.097 614.67l153.124-85.263v83.907l147.725-84.537 151.403-0.386 9.564 384.347h96.88l8.203-384.347h76.441l9.541 435.459h102.422l6.818-435.459h55.242v-588.411h-817.758l0.395 674.69zM811.212 406.153h-80.817v-289.545h80.817v289.545zM491.876 408.677h-80.818v-289.545h80.818v289.545zM650.842 408.677h-80.817v-289.545h80.817v289.545z" />
<glyph unicode="&#xe929;" glyph-name="link" d="M490.61 802.842l-108.268-108.268c-9.348-9.348-17.817-19.247-25.406-29.597-1.652-2.253-3.147-4.592-4.721-6.881 52.299 14.162 107.818 13.332 159.717-2.546l68.55 68.55c52.371 52.371 137.286 52.357 189.657-0.014 52.364-52.364 52.371-137.286 0.007-189.65l-118.418-118.418c-23.639-23.639-53.902-36.564-84.815-38.867v-0.043c-0.014 0.014-0.021 0.007-0.036 0.007-6.495-0.572-12.074-0.601-16.837-0.415-10.471 0.458-16.551 2.089-16.551 2.089-0.007 0.021 0 0.029-0.007 0.036-0.014 0-0.029 0-0.036 0.007-26.143 4.613-51.177 17.002-71.368 37.193-19.641 19.641-31.915 43.845-36.836 69.208-0.136 0.722-0.222 1.452-0.35 2.167-22.953-1.881-45.383-11.523-62.914-29.054l-36.056-36.056c12.352-31.307 31.106-60.675 56.427-85.995 25.306-25.306 54.645-44.103 85.945-56.462 5.758-2.267 11.587-4.306 17.474-6.144 4.914-1.523 9.856-2.961 14.863-4.191 0.379-0.093 0.68-0.165 1.016-0.243 0.901-0.229 1.795-0.379 2.704-0.601 51.892-11.952 106.773-7.381 156.362 13.697 6.101 2.596 12.145 5.393 18.060 8.49 0.322 0.164 0.644 0.329 0.958 0.515 0.994 0.508 1.953 1.080 2.925 1.624 2.503 1.359 5.021 2.718 7.489 4.17 0.029 0.029 0.057 0.029 0.093 0.050 17.974 10.636 34.926 23.668 50.361 39.103l108.268 108.268c98.934 98.934 98.927 259.33 0 358.257-98.92 98.934-259.323 98.948-358.257 0.014v0zM499.008 94.696l108.268 108.268c9.356 9.355 17.817 19.262 25.406 29.611 1.652 2.253 3.161 4.592 4.721 6.881-52.292-14.169-107.818-13.347-159.709 2.539l-68.557-68.557c-52.371-52.371-137.279-52.364-189.657 0.014-52.371 52.371-52.371 137.272 0 189.643l118.411 118.411c23.632 23.632 53.895 36.557 84.808 38.86l-0.007 0.036c0.014 0 0.021-0.007 0.036-0.007 6.495 0.586 12.074 0.615 16.837 0.415 10.464-0.436 16.544-2.081 16.544-2.081 0.007-0.007 0.007-0.021 0.007-0.036 0.007 0.007 0.021 0.007 0.043 0 26.143-4.613 51.184-16.994 71.368-37.179 19.641-19.641 31.915-43.859 36.821-69.208 0.15-0.737 0.236-1.452 0.35-2.167 22.96 1.874 45.404 11.516 62.928 29.039l36.063 36.063c-12.367 31.307-31.128 60.668-56.448 85.988-25.313 25.313-54.645 44.103-85.945 56.462-5.758 2.267-11.587 4.306-17.474 6.144-4.921 1.531-9.871 2.975-14.863 4.191-0.379 0.093-0.687 0.172-1.016 0.258-0.901 0.215-1.802 0.386-2.697 0.594-51.892 11.952-106.788 7.381-156.362-13.697-6.101-2.596-12.138-5.4-18.067-8.483-0.322-0.164-0.637-0.336-0.966-0.508-0.98-0.522-1.938-1.094-2.911-1.638-2.511-1.352-5.028-2.711-7.496-4.177-0.036-0.021-0.050-0.036-0.079-0.050-17.989-10.622-34.926-23.654-50.375-39.103l-108.254-108.254c-98.934-98.934-98.934-259.323 0-358.257 98.941-98.941 259.337-98.948 358.271-0.014v0z" />
<glyph unicode="&#xe92a;" glyph-name="linkedin" d="M899.86 902.574h-785.439c-37.612 0-68.096-29.553-68.096-66.028v-789.514c0-36.475 30.495-66.058 68.096-66.058h785.439c37.612 0 68.055 29.594 68.055 66.058v789.514c0 36.465-30.444 66.028-68.055 66.028zM325.724 131.133h-139.244v416.092h139.244v-416.092zM256.113 604.068h-0.932c-46.694 0-76.964 31.939-76.964 71.916 0 40.786 31.16 71.854 78.776 71.854 47.626 0 76.923-31.058 77.844-71.854 0-39.987-30.208-71.916-78.725-71.916zM827.668 131.133h-139.203v222.618c0 55.951-20.173 94.116-70.513 94.116-38.513 0-61.368-25.754-71.404-50.606-3.727-8.888-4.639-21.299-4.639-33.71v-232.407h-139.182c0 0 1.823 377.068 0 416.092h139.192v-58.993c18.483 28.344 51.497 68.782 125.43 68.782 91.617 0 160.317-59.433 160.317-187.3v-238.592zM541.020 486.922c0.246 0.389 0.573 0.86 0.901 1.311v-1.311h-0.901z" />
<glyph unicode="&#xe92b;" glyph-name="logo" d="M744.62 858.74c55.263 0.002 110.533-21.031 152.62-63.12 84.147-84.145 84.162-221.058 0-305.22-84.143-84.143-221.075-84.143-305.22 0-28.346 28.348-47.149 62.682-56.4 98.96-2.004-0.246-39.14 11.3-39.14 11.3l-0.26 80.92c0 0 36.497 6.282 37.34 6.22 8.325 39.542 27.817 77.177 58.46 107.82 42.081 42.081 97.337 63.118 152.6 63.12zM744.62 806.060c-41.777 0.007-83.564-15.884-115.36-47.68-63.594-63.594-63.551-167.106 0.040-230.7 63.594-63.592 167.046-63.574 230.64 0.020 63.592 63.592 63.614 167.048 0.020 230.64-31.796 31.797-73.563 47.713-115.34 47.72zM744.6 779.88c1.392 0 2.776-0.019 4.16-0.060l131.44-131.44c0.043-1.381 0.060-2.768 0.060-4.16v-0.38h-19l-134.84 134.82c5.945 0.798 12.019 1.22 18.18 1.22zM776.020 776.22c14.497-3.443 28.096-9.216 40.38-16.9l43.3-43.3c7.684-12.284 13.457-25.885 16.9-40.38zM706.7 774.5l130.68-130.66h-23.48l-124.38 124.38c5.543 2.47 11.275 4.563 17.18 6.28zM674.34 760.26l116.44-116.42h-23.48l-106.8 106.8c4.403 3.486 9.018 6.692 13.84 9.62zM647.9 739.34l95.5-95.5h-23.48l-82.94 82.94c3.385 4.408 7.030 8.606 10.92 12.56zM627.46 712.64l68.8-68.8h-23.48l-53.18 53.16c2.286 5.398 4.922 10.625 7.86 15.64zM301.64 705.92l160.82-25.6 0.64-76.020-161.46-27.080-194.82 11.060c-21.744-0.391-40.22 46.18-40.22 46.18s16.789 47.191 38.58 47.58zM613.5 679.22l35.4-35.38h-23.48l-15.64 15.62c0.757 6.749 2.009 13.346 3.72 19.76zM201.020 360.92c17.176-0.3 35.474-1.898 53.76-5.62 34.443-6.747 58.648-39.826 68.44-61.28 10.526-20.72 28.601-32.11 66.74-32.36l486.68 15.66c36.68 1.2 66.294-33.443 66.54-70.1-1.208-36.68-31.887-76.265-67.84-76.74l-492 29.12c-34.527-1.903-46.093-4.906-62.94-30.32-18.34-28.282-54.437-71.19-107.64-68.98-7.902 0.609-127.82 31.58-127.82 31.58l25.6 80.48c0 0 66.387-11.438 74.28-13.5 9.335-2.033 40.307 1.576 51.040 53.5 11.448 51.207-21.405 52.216-32.9 53.52-7.893 2.051-82.5-1.9-82.5-1.9l-12.32 87.080c0 0 41.353 10.759 92.88 9.86zM876.72 240.16l-34.24-34.24 34.080-34.080 34.96 34.98z" />
<glyph unicode="&#xe92c;" glyph-name="logo-black" d="M0 960v-1024h1024v1024h-1024zM744.62 858.74c55.263 0.002 110.533-21.031 152.62-63.12 84.147-84.145 84.162-221.058 0-305.22-84.143-84.143-221.075-84.143-305.22 0-28.346 28.348-47.149 62.682-56.4 98.96-2.004-0.246-39.14 11.3-39.14 11.3l-0.26 80.92c0 0 36.497 6.282 37.34 6.22 8.325 39.542 27.817 77.177 58.46 107.82 42.081 42.081 97.337 63.118 152.6 63.12zM744.62 806.060c-41.777 0.007-83.564-15.884-115.36-47.68-63.594-63.594-63.551-167.106 0.040-230.7 63.594-63.592 167.046-63.574 230.64 0.020 63.592 63.592 63.614 167.048 0.020 230.64-31.796 31.797-73.563 47.713-115.34 47.72zM744.6 779.88c1.392 0 2.776-0.019 4.16-0.060l131.44-131.44c0.043-1.381 0.060-2.768 0.060-4.16v-0.38h-19l-134.84 134.82c5.945 0.798 12.019 1.22 18.18 1.22zM776.020 776.22c14.497-3.443 28.096-9.216 40.38-16.9l43.3-43.3c7.684-12.284 13.457-25.885 16.9-40.38l-100.58 100.58zM706.7 774.5l130.68-130.66h-23.48l-124.38 124.38c5.543 2.47 11.275 4.563 17.18 6.28zM674.34 760.26l116.44-116.42h-23.48l-106.8 106.8c4.403 3.486 9.018 6.692 13.84 9.62zM647.9 739.34l95.5-95.5h-23.48l-82.94 82.94c3.385 4.408 7.030 8.606 10.92 12.56zM627.46 712.64l68.8-68.8h-23.48l-53.18 53.16c2.286 5.398 4.922 10.625 7.86 15.64zM301.64 705.92l160.82-25.6 0.64-76.020-161.46-27.080-194.82 11.060c-21.745-0.391-40.22 46.18-40.22 46.18s16.789 47.191 38.58 47.58l196.46 23.88zM613.5 679.22l35.4-35.38h-23.48l-15.64 15.62c0.757 6.749 2.009 13.346 3.72 19.76zM201.020 360.92c17.176-0.3 35.474-1.898 53.76-5.62 34.443-6.747 58.648-39.826 68.44-61.28 10.526-20.72 28.601-32.11 66.74-32.36l486.68 15.66c36.68 1.2 66.294-33.443 66.54-70.1-1.208-36.68-31.887-76.265-67.84-76.74l-492 29.12c-34.527-1.903-46.093-4.906-62.94-30.32-18.34-28.282-54.437-71.19-107.64-68.98-7.902 0.609-127.82 31.58-127.82 31.58l25.6 80.48c0 0 66.387-11.438 74.28-13.5 9.335-2.033 40.307 1.576 51.040 53.5 11.448 51.207-21.405 52.216-32.9 53.52-7.893 2.051-82.5-1.9-82.5-1.9l-12.32 87.080c0 0 41.353 10.759 92.88 9.86zM876.72 240.16l-34.24-34.24 34.080-34.080 34.96 34.98-34.8 33.34z" />
<glyph unicode="&#xe92d;" glyph-name="map" d="M1018.624 87.649v-52.832l-310.661-95.713v404.556l145.958-14.765zM680.704 347.157v-408.033l-325.768 70.994v193.962l155.255 107.958zM315.003 204.439v-190.133l-312.947-75.127-0.457 304.724 161.687 27.176zM354.936 278.006v93.64l130.494 303.165 195.274 33.254v-300.354l-184.049-37.385zM315.003 279.331l-138.181 60.276-174.766-23.172-0.457 390.809 167.811-42.178 145.593-312.954zM1018.624 200.768l-112.052 188.695-198.434 16.881-0.175-2.247v303.99l310.661-75.971zM459.592 815.535c0-16.589-3.082-32.532-8.714-47.145l-125.614-295.506c0 0-123.873 292.188-125.338 296.038-5.56 14.602-9.38 30.095-9.38 46.572 0 73.646 60.201 133.376 134.533 133.376 74.312 0 134.513-59.73 134.513-133.335zM325.151 874.742c-33.034 0-59.802-26.491-59.802-59.208 0-32.676 26.767-59.238 59.802-59.238 32.901 0.010 59.709 26.563 59.709 59.238 0 32.717-26.726 59.208-59.709 59.208z" />
<glyph unicode="&#xe92e;" glyph-name="mention" d="M1007.261 496.589c-0.001-57.6-9.201-110.4-27.6-158.4-18.401-47.6-44.401-85-78-112.2-33.601-27.2-72.601-40.8-117-40.8-29.601 0-55.801 7-78.6 21-22.801 14.4-39.201 33.2-49.2 56.4h-9.6c-43.201-51.6-98.201-77.4-165-77.4-70.8 0-126.6 21.2-167.4 63.6-40.8 42.8-61.2 101.2-61.2 175.2 0 84.4 26.8 152.399 80.4 204 53.6 51.599 123.6 77.399 210 77.4 34.399-0.001 72.199-3.401 113.4-10.2 41.599-6.401 75.799-14.201 102.6-23.4l-13.8-293.4c-0.001-55.6 15.199-83.4 45.6-83.4 25.599 0 45.999 18.6 61.2 55.8 15.199 37.6 22.799 86.6 22.8 147-0.001 64.399-13.401 121.199-40.2 170.4-26.801 49.599-64.601 87.399-113.4 113.4-48.401 25.999-103.801 38.999-166.2 39-80.801-0.001-151-16.601-210.6-49.8-59.6-33.201-105.4-81.201-137.4-144-31.6-62.401-47.4-134.6-47.4-216.6 0-110.4 29.4-195.2 88.2-254.4 59.2-58.8 144.8-88.2 256.8-88.2 42.399 0 88.999 4.6 139.8 13.8 50.799 9.6 100.799 23.4 150 41.4v-115.2c-85.601-36.4-180.601-54.6-285-54.6-152 0-270.6 40-355.8 120-84.8 80-127.2 191.2-127.2 333.6 0 98.8 21.6 188.399 64.8 268.8 43.6 80.799 105.4 143.999 185.4 189.6 80.4 45.999 172.8 68.999 277.2 69 87.999-0.001 166.599-18.001 235.8-54 69.199-36.001 122.599-87.201 160.2-153.6 37.599-66.401 56.399-143.001 56.4-229.8zM392.861 421.589c0-84.4 34.4-126.6 103.2-126.6 35.999 0 63.399 12.6 82.2 37.8 18.799 25.6 30.199 67 34.2 124.2l7.8 132.6c-20.401 4.399-43.401 6.599-69 6.6-50.001-0.001-89-15.601-117-46.8-27.6-31.2-41.4-73.8-41.4-127.8z" />
<glyph unicode="&#xe92f;" glyph-name="mixer" d="M987.433 424.581h-146.289c-20.204 0-36.567 16.394-36.567 36.608v256.236c0 20.224 16.374 36.608 36.567 36.608h146.289c20.204 0 36.567-16.394 36.567-36.608v-256.236c0-20.224-16.374-36.608-36.567-36.608zM877.711 863.846c0 20.224 16.384 36.608 36.577 36.608s36.567-16.384 36.567-36.608v-73.216h-73.155v73.216zM585.144 131.727h-146.289c-20.193 0-36.567 16.394-36.567 36.608v256.246c0 20.214 16.374 36.608 36.567 36.608h146.289c20.204 0 36.577-16.394 36.577-36.608v-256.236c0-20.224-16.384-36.618-36.577-36.618zM475.433 863.846c0 20.224 16.374 36.608 36.567 36.608s36.567-16.384 36.567-36.608v-366.060h-73.144v366.060zM182.856 278.149h-146.278c-20.204 0-36.577 16.394-36.577 36.608v256.246c0 20.214 16.374 36.608 36.577 36.608h146.289c20.193 0 36.567-16.394 36.567-36.608v-256.246c-0.010-20.214-16.374-36.608-36.577-36.608zM73.144 863.846c0 20.224 16.374 36.608 36.567 36.608s36.567-16.384 36.567-36.608v-219.638h-73.134v219.638zM146.289 21.914c0-20.224-16.374-36.598-36.567-36.598s-36.567 16.384-36.567 36.598v219.638h73.144v-219.638zM548.567 21.914c0-20.224-16.374-36.598-36.567-36.598s-36.567 16.384-36.567 36.598v73.206h73.144v-73.206zM950.856 21.914c0-20.224-16.374-36.598-36.567-36.598s-36.577 16.384-36.577 36.598v366.070h73.155v-366.070z" />
<glyph unicode="&#xe930;" glyph-name="modified" d="M380.52 880.98c57.143-52.861 111.13-102.828 154.68-143.36h419.9v143.36zM636.4 643.44c48.996-45.583 98.593-91.555 154.94-143.36h163.76v143.36zM79.16 393.6v-143.36h239.14l-154.82 143.36zM79.16 147.42v-143.36h497.42l-147.24 143.36zM199.744 835.584l579.456-535.36-124.116-137.727-579.517 535.333zM812.176 273.679l132.99-244.34-257.115 106.569z" />
<glyph unicode="&#xe931;" glyph-name="money" d="M635.368 595.3q-24.192 22.4-46.592 33.152-22.4 11.648-51.072 11.648-32.256 0-49.28-13.44t-17.024-43.904q0-21.504 17.024-36.736 17.92-14.336 43.904-27.776 26.88-13.44 57.344-27.776t56.448-34.944q26.88-20.608 43.904-50.176 17.92-28.672 17.92-71.68 0-64.512-34.944-111.104-34.944-45.696-104.832-60.928v-93.184h-86.912v89.6q-39.424 4.48-83.328 21.504-43.008 17.92-74.368 46.592l57.344 88.704q34.048-25.984 64.512-39.424 31.36-12.544 63.616-12.544 37.632 0 54.656 15.232 17.92 15.232 17.92 46.592 0 23.296-17.92 39.424-17.024 16.128-43.904 30.464-25.984 15.232-56.448 29.568-30.464 15.232-57.344 35.84-25.984 20.608-43.904 48.384-17.024 27.776-17.024 68.096 0 66.304 35.84 109.312 36.736 43.904 100.352 56.448v92.288h86.912v-90.496q43.008-6.272 75.264-25.984t58.24-47.488l-66.304-75.264zM220.337 543.94q-15.552 14.4-29.952 21.312-14.4 7.488-32.832 7.488-20.736 0-31.68-8.64t-10.944-28.224q0-13.824 10.944-23.616 11.52-9.216 28.224-17.856 17.28-8.64 36.864-17.856t36.288-22.464q17.28-13.248 28.224-32.256 11.52-18.432 11.52-46.080 0-41.472-22.464-71.424-22.464-29.376-67.392-39.168v-59.904h-55.872v57.6q-25.344 2.88-53.568 13.824-27.648 11.52-47.808 29.952l36.864 57.024q21.888-16.704 41.472-25.344 20.16-8.064 40.896-8.064 24.192 0 35.136 9.792 11.52 9.792 11.52 29.952 0 14.976-11.52 25.344-10.944 10.368-28.224 19.584-16.704 9.792-36.288 19.008-19.584 9.792-36.864 23.040-16.704 13.248-28.224 31.104-10.944 17.856-10.944 43.776 0 42.624 23.040 70.272 23.616 28.224 64.512 36.288v59.328h55.872v-58.176q27.648-4.032 48.384-16.704t37.44-30.528l-42.624-48.384zM964.96 543.94q-15.552 14.4-29.952 21.312-14.4 7.488-32.832 7.488-20.736 0-31.68-8.64t-10.944-28.224q0-13.824 10.944-23.616 11.52-9.216 28.224-17.856 17.28-8.64 36.864-17.856t36.288-22.464q17.28-13.248 28.224-32.256 11.52-18.432 11.52-46.080 0-41.472-22.464-71.424-22.464-29.376-67.392-39.168v-59.904h-55.872v57.6q-25.344 2.88-53.568 13.824-27.648 11.52-47.808 29.952l36.864 57.024q21.888-16.704 41.472-25.344 20.16-8.064 40.896-8.064 24.192 0 35.136 9.792 11.52 9.792 11.52 29.952 0 14.976-11.52 25.344-10.944 10.368-28.224 19.584-16.704 9.792-36.288 19.008-19.584 9.792-36.864 23.040-16.704 13.248-28.224 31.104-10.944 17.856-10.944 43.776 0 42.624 23.040 70.272 23.616 28.224 64.512 36.288v59.328h55.872v-58.176q27.648-4.032 48.384-16.704t37.44-30.528l-42.624-48.384z" />
<glyph unicode="&#xe932;" glyph-name="newspaper" d="M1024 149.112l-73.769-100.472h-872.581l-77.65 92.536v572.468l141.517 1.906v137.845h882.483zM133.12 642.56h-61.44v-478.671l29.501-33.329 31.939 33.329zM869.12 540.16h-245.76v-276.48h245.76zM921.6 714.24h-645.12v-71.68h645.12zM318.72 222.72h231.68v52.219h-231.68zM318.72 355.84h231.68v51.2h-231.68zM550.4 488.96v51.2h-231.68v-51.2z" />
<glyph unicode="&#xe933;" glyph-name="phone-extension" d="M60.48 957.76v-1024h921.6v1024h-921.6zM635.2 855.68c2.959 0.123 5.578 0.089 8.32 0 19.943-0.648 34.063-7.245 39.040-20.48l40.96-108.8-166.080-93.12c-19.997 19.997-53.127 59.996-101.12 32-71.989-41.993-79.926-70.411-121.92-142.4-27.996-47.993 13.569-79.649 34.56-96.64l-103.68-178.24-94.4 52.8c-26.686 31.463-38.166 67.958 34.56 208.96 64.978 110.983 150.188 220.649 252.16 280.64 65.088 38.021 133.215 63.433 177.6 65.28zM513.28 468.48l330.56-0.64v-408l-330.56 0.64v408zM590.080 413.76c-4.519 0-8-3.398-8-7.68v-49.28c0-4.282 3.481-7.68 8-7.68h46.080c4.519 0 8 3.398 8 7.68v49.28c0 4.282-3.481 7.68-8 7.68h-46.080zM719.68 413.76c-4.519 0-8-3.398-8-7.68v-49.28c0-4.282 3.481-7.68 8-7.68h46.080c4.519 0 8.32 3.398 8.32 7.68v49.28c0 4.282-3.801 7.68-8.32 7.68h-46.080zM590.4 291.2c-4.519 0-8.32-3.719-8.32-8v-49.28c0-4.281 3.801-7.68 8.32-7.68h46.080c4.519 0 8 3.399 8 7.68v49.28c0 4.281-3.481 8-8 8h-46.080zM720 291.2c-4.519 0-8-3.719-8-8v-49.28c0-4.281 3.481-7.68 8-7.68h46.080c4.519 0 8 3.399 8 7.68v49.28c0 4.281-3.481 8-8 8h-46.080zM589.76 168.96c-4.519 0-8.32-3.079-8.32-7.36v-49.6c0-4.281 3.801-7.68 8.32-7.68h45.76c4.519 0 8.32 3.399 8.32 7.68v49.6c0 4.281-3.801 7.36-8.32 7.36h-45.76zM719.68 168.96c-4.519 0-8.32-3.079-8.32-7.36v-49.6c0-4.281 3.801-7.68 8.32-7.68h45.76c4.519 0 8 3.399 8 7.68v49.6c0 4.281-3.481 7.36-8 7.36h-45.76z" />
<glyph unicode="&#xe934;" glyph-name="photos" d="M852.111 500.716l171.284-0.020-0.246-412.058h-1023.754v412.18l429.358-0.051c-7.923-22.922-12.228-47.54-12.228-73.164 0-123.654 100.242-223.897 223.897-223.897s223.897 100.242 223.897 223.897c0 25.6-4.296 50.195-12.208 73.113zM449.020 543.831l-449.378 0.476-0.246 205.548 125.030 2.161c0 0 3.516 25.998 13.793 29.348 15.010 4.892 61.467 4.892 76.268 0 10.101-3.338 10.154-19.497 12.538-29.348h107.083c10.558 23.248 30.297 80.009 52.923 86.292 36.896 10.246 229.5 5.971 243.736 1.962 32.94-9.278 52.71-88.254 52.71-88.254h84.446c0 0 7.003 39.009 22.738 44.175 22.427 7.363 89.556 7.363 111.821 0 15.585-5.154 17.831-32.295 21.768-44.175l98.91-2.161v-206.633l-191.088 0.203c-39.227 64.778-110.382 108.075-191.65 108.075-81.097 0-152.122-43.116-191.403-107.668zM640.423 579.444c83.859 0 151.841-67.981 151.841-151.841 0-83.858-67.981-151.841-151.841-151.841-83.858 0-151.84 67.982-151.84 151.841s67.981 151.841 151.84 151.841z" />
<glyph unicode="&#xe935;" glyph-name="plus" d="M870.4 362.301v0h-271.36v-272.66h-174.090v272.66h-271.35v172.718h271.35v271.34h174.111v-271.35h271.34v-172.708z" />
<glyph unicode="&#xe936;" glyph-name="progress" d="M991.92 459.549l-437.6-266.189v522.24l437.6-256.051zM370 111.44h71.68v71.68h-71.68v-71.68zM370 265.040h71.68v71.68h-71.68v-71.68zM370 418.64h71.68v71.68h-71.68v-71.68zM370 582.48h71.68v71.68h-71.68v-71.68zM226.64 29.52h71.68v71.68h-71.68v-71.68zM226.64 183.12h71.68v71.68h-71.68v-71.68zM226.64 346.96h71.68v71.68h-71.68v-71.68zM226.64 500.56h71.68v71.68h-71.68v-71.68zM226.64 654.16h71.68v71.68h-71.68v-71.68zM370 736.080h71.68v71.68h-71.68v-71.68zM226.64 807.76h71.68v71.68h-71.68v-71.68zM93.52-62.64h71.68v71.68h-71.68v-71.68zM93.52 265.040h71.68v71.68h-71.68v-71.68zM93.52 582.48h71.68v71.68h-71.68v-71.68zM93.52 889.68h71.68v71.68h-71.68v-71.68z" />
<glyph unicode="&#xe937;" glyph-name="recrawl" d="M473.52 904.32c-242.586-0.006-439.239-202.657-439.24-452.64v0c0.001-249.983 196.654-452.634 439.239-452.64h0.001c1.528 0.094 1.625 0.101 1.722 0.108l-1.442-0.088v185.9c0.755 0.045 0.659 0.037 0.562 0.030l-0.842-0.051c-142.954 0.007-258.838 119.427-258.84 266.74v0c0.002 147.313 115.886 266.733 258.839 266.74h0.001c127.152-0.024 232.88-94.518 254.684-219.077l0.236-1.623h-97.72l187.32-254.84 187.3 254.84h-94.88c-23.428 229.373-210.099 406.582-436.938 406.6h-0.002z" />
<glyph unicode="&#xe938;" glyph-name="reply" d="M10.788 458.636l484.216 340.405c0.412-87.451-0.646-150.636 0.186-238.073 137.707 17.253 520.656 0.386 515.577-423.683-100.676 197.502-199.252 251.011-515.763 219.757v-216.019z" />
<glyph unicode="&#xe939;" glyph-name="research" d="M733.44 960h-272.64l51.2-81.92h174.080v-256h256v-604.16h-624.64v500.285l-81.92 8.899v-591.104h788.48v722.186l-290.56 301.814zM747.52 683.52v139.469l134.789-139.469h-134.789zM399.36 468.48h450.56v-40.96h-450.56v40.96zM399.36 325.12h450.56v-40.96h-450.56v40.96zM399.36 181.76h450.56v-40.96h-450.56v40.96zM439.337 637.542c33.546 35.389 49.172 81.49 47.944 127.99-2.54 96.143-86.456 175.718-182.641 173.169-96.952-2.56-176.568-84.849-173.998-181.852 1.106-41.667 16.579-82.934 45.537-115.855l-80.026-34.98-80.343-85.565c-6.205-8.151-9.114-18.657-8.837-29.082 0.676-25.62 22.927-48.302 49.367-47.606 10.414 0.276 19.948 3.717 28.59 10.363l81.142 85.524 30.781 81.050c34.396-27.156 75.643-40.499 117.279-39.404 45.701 1.208 90.911 20.050 125.204 56.248zM233.748 680.233c-22.211 21.033-33.372 48.835-34.14 77.681-1.546 58.491 46.807 110.305 106.875 111.882 58.542 1.546 110.326-46.817 111.903-106.086 1.608-60.928-46.756-111.944-106.097-113.51-28.017-0.748-56.361 9.748-78.541 30.034z" />
<glyph unicode="&#xe93a;" glyph-name="retweet" d="M156.53 99.265l-1.587 367.993h-141.505l208.758 293.764 208.758-293.764h-141.505v-220.774h323.469l100.414-146.588zM828.821 99.153l-208.758 294.44h141.505v220.774h-323.469l-90.45 145.49 548.505 1.617 0.127-367.993h121.296z" />
<glyph unicode="&#xe93b;" glyph-name="rss" d="M260.096 196.413c22.323-22.292 35.901-52.541 35.983-86.221-0.082-33.618-13.66-63.867-35.901-86.077l-0.082-0.041c-22.282-22.18-52.716-35.738-86.559-35.738-33.802 0-64.164 13.599-86.436 35.779-22.221 22.2-35.901 52.419-35.901 86.077 0 33.679 13.681 64 35.901 86.252v-0.031c22.282 22.2 52.644 35.86 86.436 35.86 33.843 0 64.246-13.691 86.559-35.86zM260.096 196.444v-0.031c0.041 0 0.041 0 0.041 0l-0.041 0.031zM87.101 24.074c0 0 0 0 0 0.041-0.041 0-0.041 0-0.041 0l0.041-0.041zM51.302 595.415v-175.974c114.883-0.072 223.539-45.199 304.855-126.638 81.295-81.183 126.239-190.003 126.423-305.285h0.061v-0.317h176.701c-0.143 167.629-68.28 319.468-178.442 429.711-110.182 110.223-261.96 178.401-429.599 178.504zM51.62 908.8v-175.892c410.665-0.297 744.499-334.653 744.776-745.708h176.404c-0.123 254.054-103.383 484.229-270.264 651.223-166.932 166.943-396.954 270.264-650.916 270.377z" />
<glyph unicode="&#xe93c;" glyph-name="search" d="M646.52 938.46c-194.949 0-359.3-161.051-359.3-356.020 0-83.812 28.874-167.588 85.36-235.26l-108.94-16.54-239.22-230.5 0.82-26.78 40.66-68.060 55.72-39.46 33.080-1.7 231.58 237.4 26.76 103.76c67.672-56.447 149.757-85.38 233.52-85.38 91.867 0 183.689 35.478 254.5 106.28 69.32 69.379 103.18 161.203 103.18 254.64 0 193.291-164.409 357.62-357.72 357.62zM646.56 799.92c117.702 0 219.14-99.936 219.14-219.1 0-122.49-99.888-222.46-219.14-222.46-56.368 0-112.716 22.684-156.28 64.6-43.476 43.437-64.38 99.853-64.38 157.86 0 117.574 99.897 219.1 220.66 219.1z" />
<glyph unicode="&#xe93d;" glyph-name="server" d="M450.877 970.24l-307.999-167.997h433.5l277.002 167.997h-402.504zM618.885 758.241v-805.499l280.003 265.503v719.995l-280.003-179.999zM114.883 754.237v-807.997h455.997v807.997h-455.997zM194.877 666.235h288v-48.005h-288v48.005zM194.877 570.245h288v-48.005h-288v48.005zM194.877 474.235h288v-48.005h-288v48.005zM194.877 378.245h288v-48.005h-288v48.005z" />
<glyph unicode="&#xe93e;" glyph-name="shared-with" d="M52.792 221.341c-33.799 68.329-52.792 145.286-52.792 226.68 0 282.764 229.257 511.98 512.007 511.98s511.993-229.202 511.993-511.98c0-282.778-229.243-511.993-511.993-511.993-180.819 0-339.762 93.741-430.859 235.285 30.68 28.755 66.725 57.089 106.568 81.765 154.961 96.632 264.344 56.396 264.344 56.396v-193.74l387.522 324.191-386.231 343.565v-189.1c0 0-204.388-38.518-312.722-210.046-38.026-60.207-66.671-115.967-87.837-163.003v0z" />
<glyph unicode="&#xe93f;" glyph-name="shippment" d="M341.6 851.18l-341.6-185.8 36.34-20.48 133.2-74-1.6-0.78h-0.14v-0.14l-164.86-89.8 164.86-88.6v-222.74l344.14-171.4 344.2 171.4v222.080l166.2 89.26-165.4 89.88 167.060 92.78-36.88 19.94-304.92 166.14-168-91.68zM514.12 722.64l302.36-152.88-302.94-156.56-298.22 157.3zM499.040 382.020v-28.84l-144.32-85.76-157.64 84.62v25.9l151.86-83.76zM528.4 380.32l147.54-86.14 153.28 80.98v-25.36l-153.5-84.7-147.32 86.12z" />
<glyph unicode="&#xe940;" glyph-name="social" d="M460.457 207.551c13.347 62.135 17.099 126.201 90.629 161.731 5.781 2.985 12.411 6.137 19.479 9.331 37.941 17.142 68.051 35.476 68.051 35.476 0 2.167 9.61 56.594 9.61 56.594-38.324 11.287-69.245 152.669-69.245 152.669-7.296 49.69 5.57 125.74 5.57 125.74 17.171 126.447 240.252 111.737 270.447 26.929 30.401-32.568 23.879-135.067 23.879-135.067l-28.322-118.425c-10.63-50.082-43.6-53.25-43.6-53.25-0.167-7.326 14.504-63.841 14.504-63.841s68.142-29.145 100.583-43.277c76.864-27.174 64.024-91.29 76.007-156.729l19.319-209.371c0-8.837 10.125-56.064-45.238-56.064-20.78 0-468.182 0-483.402 0-55.392 0-48.425 56.064-48.425 56.064l20.153 211.489zM351.728 399.26c49.627-18.177 51.672-20.44 79.67-49.465-46.3-42.488-55.095-317.618-62.405-362.021 0 0-7.633-51.773-41.471-51.773-12.299 0-236.191-0.002-296.459 0-40.477 0.002-29.786 52.563-29.786 52.563s17.003 171.941 20.456 194.398c25.721 141.483 65.599 168.953 166.782 210.741l0.969 43.053c0 0-95.37 29.043-102.152 34.473 0 0 16.99 49.401 23.973 73.863 7.148 24.439 26.489 142.398 34.5 159.466 7.94 17.056 18.904 40.158 37.406 51.529 18.479 11.347 46.055 27.532 85.611 29.717 0.555 0.035 1.158 0.035 1.749 0.116 0.603-0.081 1.134-0.081 1.772-0.116 39.438-2.186 67.062-18.335 85.588-29.717 18.455-11.359 29.289-34.473 37.406-51.529 7.963-17.068 26.749-136.573 33.897-161.036 7.065-24.439 21.326-74.572 21.326-74.572-10.007-7.755-98.832-32.205-98.832-32.205s0-32.661 0-37.485z" />
<glyph unicode="&#xe941;" glyph-name="source" d="M214.346 438.916l250.515-349.653-145.698-98.487-319.162 448.14 319.162 453.075 145.698-97.608zM809.654 438.916l-250.515-349.653 145.698-98.487 319.162 448.14-319.162 453.075-145.698-97.608z" />
<glyph unicode="&#xe942;" glyph-name="sources" d="M769.561 293.637c-24.724 7.674-43.648 21.045-60.499 37.972l-72.617 66.519-122.721-119.044 107.947-106.635c25.334-25.465 82.364-59.317 147.931-72.122 0.018-47.258 0.039-122.517 0.046-122.552l246.247 218.925-246.264 197.337c-0.048 0-0.068-53.984-0.071-100.401zM774.681 792.813c-61.055-8.423-104.615-32.697-130.316-58.532l-357.903-359.649c-27.042-27.163-67.892-78.204-121.011-78.204h-169.010v-191.313h169.010c86.066 0 145.378 59.602 177.241 91.631l357.903 359.649c18.446 18.529 43.318 38.872 74.126 49.931 0.018-46.802 0.037-101.156 0.044-101.19l236.397 198.445-236.413 197.337c-0.049 0-0.067-57.736-0.069-108.104zM332.261 510.397l118.277 116.159-100.084 96.466c-31.863 32.029-98.938 83.407-185.004 83.407h-169.010v-181.323h169.010c53.119 0 93.969-41.050 121.011-68.213z" />
<glyph unicode="&#xe943;" glyph-name="star" d="M512 192l-312.984-215.745 90.495 348.513-283.929 267.298 360.167-0.353 146.252 347.807 146.252-347.807 360.167 0.353-283.929-267.298 90.495-348.513z" />
<glyph unicode="&#xe944;" glyph-name="store" d="M248.229 830.872v-64.431h-240.768v-110.55h1009.53v110.55h-242.803v64.431h-525.96zM80.369 626.389v-621.589h279.766l53.24 49.849v500.187h209.231v-500.187l54.597-49.849h275.696c0 259.581 0.007 355.152 0 621.589h-872.53zM159.382 555.175h165.825v-208.214h-165.825v208.214zM705.349 555.175h165.825v-208.214h-165.825v208.214z" />
<glyph unicode="&#xe945;" glyph-name="survey" d="M908.247 708.127l0.031 19.845-24.934 0.061-0.031-19.866-19.599-0.072-0.082-54.825 64.133-0.102 0.082 55.040zM863.601 633.108l-0.492-297.687h0.113l-0.389-222.167 16.005-9.37 15.944-56.801 16.118 56.75 16.046 8.192 0.399 223.816h-0.123l0.492 297.144zM272.968 797.655l343.767 0.256c43.5 0.020 40.223 56.33-0.123 59.884-19.558 1.7-63.713 5.581-79.032 6.932-15.145 1.321-26.429 14.019-26.45 26.307-0.020 38.605-10.035 58.757-46.52 58.726l-39.752-0.031c-36.506-0.020-46.479-20.183-46.459-58.808 0-12.278-11.264-24.975-26.399-26.317-15.329-1.393-59.464-5.335-78.971-7.076-40.376-3.594-43.612-59.894-0.061-59.873zM445.573 925.87c12.452 0 22.497-10.076 22.548-22.497 0.041-12.431-10.066-22.518-22.518-22.528-12.431 0.010-22.467 10.025-22.538 22.467-0.020 12.452 10.045 22.538 22.508 22.559zM668.621 822.845c-0.993-9.585-4.393-21.473-10.824-28.406-5.827-6.349-16.568-13.885-34.243-13.947l-355.779-0.205c-17.695 0-28.396 7.619-34.253 13.937-6.502 6.943-9.871 18.801-10.957 28.355h-119.828l0.451-873.779 685.865 0.399-0.461 873.708-119.972-0.061zM268.892 108.37c-19.999 0-36.209 16.21-36.209 36.209s16.21 36.209 36.209 36.209c19.999 0 36.209-16.21 36.209-36.209s-16.21-36.209-36.209-36.209zM268.892 264.909c-19.999 0-36.209 16.21-36.209 36.209s16.21 36.198 36.209 36.198c19.999 0 36.209-16.2 36.209-36.198s-16.21-36.209-36.209-36.209zM268.892 421.437c-19.999 0-36.209 16.21-36.209 36.209s16.21 36.209 36.209 36.209c19.999 0 36.209-16.21 36.209-36.209s-16.21-36.209-36.209-36.209zM268.892 577.966c-19.999 0-36.209 16.21-36.209 36.209s16.21 36.209 36.209 36.209c19.999 0 36.209-16.21 36.209-36.209s-16.21-36.209-36.209-36.209zM359.004 635.136l290.038 0.236 0.041-41.564-290.068-0.164-0.010 41.492zM359.025 478.761h290.099v-41.564h-290.099v41.564zM359.055 322.243h290.109v-41.574h-290.109v41.574zM649.216 124.252l-290.089-0.225-0.051 41.523 290.15 0.236-0.010-41.533z" />
<glyph unicode="&#xe946;" glyph-name="tag" d="M311.010 937.089c-77.831-61.847-196.627-148.075-265.517-204.807l22.19-168.804 504.137-603.648 67.714-7.139 354.014 290.703 7.758 67.308-522.17 588.753zM314.055 767.562c50.166 8.846 97.803-23.517 106.402-72.283s-25.098-95.47-75.263-104.316c-50.166-8.846-97.803 23.517-106.402 72.283s25.098 95.47 75.263 104.316z" />
<glyph unicode="&#xe947;" glyph-name="targeting" d="M512.26 938.5c-266.663 0-484.26-217.597-484.26-484.26 0-233.534 166.978-429.174 387.56-474.24l-118.56 196.52c-82.755 64.074-135.88 164.343-135.88 277.72 0 194.72 156.42 351.14 351.14 351.14s351.14-156.42 351.14-351.14c0-32.747-4.542-64.365-12.84-94.38v-251.16c89.873 88.001 145.96 210.371 145.96 345.54 0 266.663-217.597 484.26-484.26 484.26zM512.26 705.12c-137.894 0-250.88-112.986-250.88-250.88 0-100.323 59.83-187.403 145.52-227.44l23.18 16.84v99.28c-34.071 25.027-56.060 65.274-56.060 111.32 0 77.019 61.221 138.24 138.24 138.24s138.24-61.221 138.24-138.24c0-32.908-11.251-62.883-30.060-86.48l2.56-8.92 111.4-20.62c18.3 34.761 28.74 74.233 28.74 116.020 0 137.894-112.986 250.88-250.88 250.88zM475.351 491.44v-388.26l-34.271 58.3-56.6-40.74 97.6-135.58 0.96 0.7v-2.84l43.96-44.96h228.34l24.92 44.96 22.48 33.64v235.56h-67.3v-84.12h-16.84l0.6 100.1h-67.3l-0.6-100.1h-16.82v113.78h-67.3v-113.78h-16.82v323.34z" />
<glyph unicode="&#xe948;" glyph-name="telephone" d="M607.834 844.227c-151.815-89.314-400.431-343.848-497.17-509.078-108.273-209.923-90.972-264.174-51.242-311.016l140.555-78.987 154.171 265.585c-31.251 25.297-93.193 72.425-51.513 143.875 62.519 107.176 196.419 241.075 303.595 303.595 71.451 41.68 120.567-18.274 150.338-48.046l247.214 138.794-61.022 162.262c-23.713 63.053-184.581 20.84-334.926-66.985z" />
<glyph unicode="&#xe949;" glyph-name="terms" d="M408.32 950.42c-217.233 0-393.38-176.096-393.38-393.34 0-213.020 169.381-386.38 380.76-393.060-38.358 46.379-61.65 106.443-61.72 171.945v0.015c0.041 57.982 18.272 111.699 49.294 155.76l-0.574-0.86c-0.925 0.247-1.819 0.58-2.82 0.58h-19c-6.161 0-15.37 2.918-20.4 6.5l-60.5 42.78c-5.051 3.561-11.741 10.843-14.88 16.18l-28.3 48.020c-3.139 5.326-10.758 9.72-16.94 9.72h-13.52c-6.182 0-13.436 4.541-16.12 10.1l-32.78 67.92c-2.642 5.558-4.88 15.157-4.88 21.36v38.72c0 6.182-4.813 9.758-10.72 7.94l-13.2-4.060c57.067 79.766 147.348 134.131 250.48 142.86v-46.7c0-6.171 4.108-14.14 9.16-17.68l21.080-14.8c5.062-3.54 14.247-6.46 20.44-6.46h16.66c6.183 0 11.22-4.081 11.22-9.080 0-4.977-3.472-12.718-7.72-17.22l-24-25.3c-4.27-4.47-2.672-8.159 3.5-8.18l16-0.040c6.161-0.010 11.22-5.067 11.22-11.26l-0.040-40.38c-0.020-6.172 5.037-11.24 11.22-11.24h18.080c6.182 0 11.24-3.837 11.24-8.54 0-4.692-5.058-8.52-11.24-8.52h-55.42c-6.172 0-15.237-3.079-20.14-6.82l-22.72-17.3c-4.914-3.741-8.93-11.878-8.92-18.060v-67.16c0-6.182-5.047-11.24-11.24-11.24h-3.14c-6.172 0-11.22 5.058-11.22 11.24v38.66c0 6.182-5.047 11.24-11.24 11.24h-30.3c-6.161 0-11.258-5.058-11.3-11.24l-0.14-31.2c-0.043-6.182 3.91-14.391 8.74-18.28l44.74-35.88c4.798-3.878 13.808-7.050 19.98-7.060l24.4-0.020c50.059 58.994 124.255 96.188 207.138 96.2h0.002c76.542-0.021 145.67-31.749 194.966-82.763l0.074-0.077c0.891 10.805 1.48 21.705 1.48 32.74 0 217.255-176.126 393.34-393.36 393.34zM470.7 895c53.791-9.923 103.297-32.247 145.22-64.12-1.448-4.808-70.1-58.040-70.1-58.040-4.988-3.667-14.118-6.66-20.3-6.66h-4.84c-6.172 0-11.24 5.057-11.24 11.24v36.54c0 6.182-5.027 11.22-11.22 11.22h-16.28c-6.182 0-11.24 5.068-11.24 11.24v58.58zM616.36 549.42c-120.779 0-223.5-102.673-223.5-223.44 0-58.379 21.149-115.753 64.46-159.1 44.242-44.236 101.622-66.4 159.020-66.4 52.334 0 103.619 18.072 145.9 53.34l16.72-64.84 144.68-148.32 20.68 1.060 34.82 24.66 25.4 42.52 0.5 16.74-149.46 144.020-68.060 10.32c35.292 42.281 53.34 94.635 53.34 147 0 121.815-102.697 222.44-224.5 222.44zM616.34 462.86c75.452 0 137.86-63.441 137.86-136.9 0-36.242-13.057-71.481-40.22-98.62-27.219-26.189-62.421-40.38-97.64-40.38-74.508 0-136.92 62.469-136.92 139 0 74.452 63.381 136.9 136.92 136.9z" />
<glyph unicode="&#xe94a;" glyph-name="text" d="M17.2 823.839h671.351l6.38-176.076h-28.42c-13.899 55.321-31.594 91.334-53.033 108.027-21.46 16.693-66.584 25.045-135.371 25.045h-66.098v-530.264c0-39.935 7.15-64.675 21.449-74.229 14.289-9.575 45.598-15.86 93.917-18.876v-19.224h-346.11v19.224c50.238 3.343 81.547 10.577 93.917 21.66s18.549 38.923 18.549 83.583v518.126h-66.668c-65.708 0-110.442-8.268-134.211-24.792-23.769-16.535-41.654-52.621-53.623-108.28h-28.989l6.96 176.076zM627.535 437.329h382.576l3.649-100.35h-16.187c-7.93 31.52-18.001 52.052-30.234 61.564-12.212 9.512-37.942 14.278-77.129 14.278h-37.668v-302.189c0-22.746 4.081-36.856 12.212-42.298 8.152-5.463 25.994-9.037 53.528-10.767v-10.957h-197.262v10.957c28.652 1.909 46.484 6.021 53.528 12.349 7.044 6.306 10.566 22.187 10.566 47.634v295.271h-37.984c-37.447 0-62.945-4.703-76.496-14.131s-23.727-29.991-30.561-61.712h-16.514l3.976 100.35z" />
<glyph unicode="&#xe94b;" glyph-name="trash" d="M434.060 959.96l-71.2-99.18h-242.1l-0.74-107.7 799.4 0.84 0.94 105.98-241.32 0.84-68.2 99.22c-52.733-0.95-119.906 0-176.78 0zM877.84 698.22l-715.88-1.42 50.96-759.8h608.8l56.12 761.22zM361.82 563.6h102.4v-489.060h-102.4v489.060zM576.16 563.6h102.4v-489.060h-102.4v489.060z" />
<glyph unicode="&#xe94c;" glyph-name="twiddler" d="M675.121 807.513c43.775 0.027 40.469 56.682-0.109 60.246-19.681 1.721-64.098 5.627-79.518 6.979-15.256 1.339-26.593 14.109-26.62 26.47-0.027 38.844-10.107 59.126-46.82 59.099l-40.019-0.027c-36.727-0.027-46.766-20.31-46.738-59.181 0-12.361-11.336-25.131-26.565-26.483-15.42-1.407-59.837-5.368-79.463-7.116-40.633-3.619-43.884-60.274-0.055-60.246l345.908 0.26zM502.932 890.951c-12.511 0.014-22.618 10.093-22.673 22.618-0.027 12.525 10.107 22.673 22.645 22.686 12.538 0 22.645-10.134 22.7-22.632 0.027-12.497-10.148-22.659-22.673-22.673zM848.060 832.66l-120.74-0.14c-0.994-9.63-4.409-21.559-10.88-28.52-5.873-6.392-16.685-13.966-34.44-14.020l-358-0.2c-17.796 0-28.573 7.635-34.46 14-6.542 6.98-9.927 18.919-11.020 28.52h-120.6l0.46-889.78 690.14 0.4-0.46 889.72v0.020zM556.12 691.36l52.38-39.22c0 0-31.601-46.331-33.32-52.12-3.611-7.826-15.704-29.214 22.36-40.32 38.256-11.821 52.668 6.695 54.96 13.4 1.713 5.792 20 52.4 20 52.4l62.78-12.58c0 0-26.271-87.884-28.94-93.16-19.221-34.844-61.408-42.504-87.1-44.060-23.229-1.634-29.696-7.948-44.36-29.36l-172.040-325.36c-14.281-22.839-52.191-28.229-76.74-15.8-23.968 13.352-35.219 44.778-20.18 67.82l199.38 305.82c14.654 24.498 14.212 40.165 4.7 54.36-10.28 13.989-22.593 41.389-13.64 65.86 18.647 52.167 59.76 92.32 59.76 92.32zM264.2 655.060h116.52v-33.16h-39.38v-132.58h-37.76v132.58h-39.38v33.16zM554.8 192.1h35.12l23.68-95.080h0.86l25.2 95.080h23.86l25.18-95.080h0.84l23.7 95.080h34.94l-39.48-138.58h-34.94l-22.18 77.78-22.18-77.78h-35.12l-39.48 138.58zM366.080 169.16l-35.78-9.58 8.36-34.28 36.54 9.78-9.12 34.080z" />
<glyph unicode="&#xe94d;" glyph-name="twitter" d="M868.383 483.185c51.763 4.27 86.866 27.802 100.383 59.73-18.678-11.469-76.636-23.972-108.646-12.063-1.567 7.516-3.318 14.664-5.038 21.115-24.392 89.559-107.899 161.71-195.4 152.996 7.076 2.857 14.254 5.519 21.422 7.905 9.626 3.451 66.14 12.646 57.242 32.594-7.506 17.541-76.544-13.261-89.539-17.285 17.152 6.451 45.537 17.551 48.568 37.274-26.286-3.604-52.091-16.036-72.028-34.109 7.199 7.752 12.657 17.193 13.814 27.361-70.124-44.8-111.084-135.117-144.23-222.72-26.030 25.221-49.101 45.087-69.796 56.115-58.061 31.14-127.478 63.621-236.452 104.079-3.348-36.055 17.828-83.999 78.848-115.876-13.22 1.772-37.396-2.181-56.73-6.81 7.875-41.308 33.587-75.336 103.209-91.791-31.816-2.099-48.261-9.339-63.16-24.945 14.49-28.723 49.848-62.536 113.459-55.593-70.717-30.484-28.836-86.938 28.713-78.51-98.171-101.396-252.948-93.952-341.821-9.144 232.049-316.201 736.471-187.003 811.643 117.565 56.31-0.481 89.426 19.507 109.957 41.544-32.451-5.509-79.473 0.184-104.417 10.568z" />
<glyph unicode="&#xe94e;" glyph-name="upload" d="M618.232 308.791h-210.207v192.395h-133.265l237.345 300.032 235.866-300.032h-129.739zM51.2 898.554v-901.108h921.6v901.108zM755.613 222.72v-106.444h-489.346v106.444z" />
<glyph unicode="&#xe94f;" glyph-name="user" d="M647.895 311.357c-19.415 21.842-19.415 21.842-6.38 103.035 22.221 90.88 42.383 34.468 74.179 215.716 26.665 152.238-30.28 283.034-203.305 283.034-172.974 0-229.97-130.796-203.254-283.034 31.785-181.258 51.876-124.836 74.158-215.716 13.036-81.203 13.036-81.203-6.4-103.035l-376.893-113.654v-210.452h1024c0 0 0 172.042 0.42 192.522z" />
<glyph unicode="&#xe950;" glyph-name="view" d="M1023.949 452.966c-0.051 0.43-0.102 0.829-0.102 1.249 0 0.215-0.041 0.43-0.041 0.635-0.051 0.307-0.102 0.614-0.154 0.922-0.041 0.328-0.092 0.707-0.143 1.034 0 0.051 0 0.123 0 0.123-1.27 7.936-5.038 15.38-10.691 21.084-32.686 38.697-71.557 73.175-111.084 104.653-85.125 67.789-182.395 124.529-289.864 147.354-62.126 13.189-124.59 13.752-187.013 2.591-56.76-10.148-111.462-31.283-162.714-57.426-80.179-40.98-153.385-97.444-217.17-160.758-11.776-11.704-23.552-23.675-34.294-36.413-14.275-16.937-14.275-36.987 0-53.924 32.686-38.717 71.506-73.155 111.032-104.622 85.115-67.84 182.446-124.559 289.905-147.405 62.085-13.148 124.549-13.711 187.013-2.591 56.771 10.168 111.462 31.283 162.724 57.467 80.128 40.98 153.385 97.423 217.16 160.727 11.827 11.715 23.562 23.675 34.304 36.413 5.704 5.714 9.421 13.117 10.691 21.053 0 0.051 0.051 0.082 0.051 0.123 0 0.358 0.051 0.707 0.092 1.065 0.051 0.307 0.154 0.614 0.154 0.922 0.041 0.215 0.041 0.42 0.041 0.635 0.051 0.43 0.102 0.829 0.102 1.249 0.041 0.635 0.041 1.27 0.041 1.905 0 0.666-0.041 1.28-0.041 1.935zM511.98 254.034c-108.82 0-197.007 88.187-197.007 197.007s88.187 197.028 197.007 197.028 197.048-88.207 197.048-197.028-88.228-197.007-197.048-197.007zM511.98 516.28c-36.035 0-65.198-29.225-65.198-65.249 0-36.014 29.164-65.239 65.198-65.239s65.188 29.225 65.188 65.239c0 36.024-29.153 65.249-65.188 65.249z" />
<glyph unicode="&#xe951;" glyph-name="work" d="M882.558 495.608l66.822 68.047c13.586 14.827 13.586 35.852 0 49.455l-13.628 14.852c-9.904 11.121-29.655 14.828-42.050 3.707-11.145 0-25.973 4.956-37.118 16.077-23.482 26.006-7.414 71.754-23.482 87.823-7.422 7.438-37.118 37.118-65.532 65.557-30.954 30.921-82.095 65.672-258.072 33.311l1.258-28.463c0 0 43.372 24.302 123.724-54.858 0 0 29.704-32.154 1.241-60.609-7.422-8.655-11.096-12.362-11.096-12.362l-14.885-14.852 76.172-74.898c0 0 19.8 21.017 25.973 25.973 14.836 16.069 53.195 14.844 82.85-16.077 21.041-19.808 24.732-42.074 13.628-49.488-6.222-8.663-1.241-27.214 9.904-37.118l14.828-16.077c14.828-13.611 35.877-13.611 49.463 0zM664.871 566.112l-73.69 76.156-462.662-454.032c-18.559-18.543-18.559-49.463 0-66.781l32.84-34.090c18.559-18.559 49.513-18.559 66.822 0z" />
<glyph unicode="&#xe952;" glyph-name="x" d="M777.503 58.040v0l-264.571 264.581-265.748-265.728-124.559 124.518 265.769 265.779-264.581 264.561 123.351 123.372 264.55-264.561 264.581 264.54 124.549-124.57-264.53-264.561 264.55-264.561-123.361-123.372z" />
</font>
</defs>
</svg>
